<?xml version="1.0" encoding="utf-8"?>
<svg version="1.1" xmlns:xlink="http://www.w3.org/1999/xlink" width="8px" height="6px" xmlns="http://www.w3.org/2000/svg">
  <g transform="matrix(1 0 0 1 -875 -65 )">
    <path d="M 5.29427083333333 0.69921875  C 4.8828125 0.56640625  4.45138888888889 0.5  4 0.5  C 3.54861111111111 0.5  3.1171875 0.56640625  2.70572916666667 0.69921875  C 2.29427083333333 0.83203125  1.94010416666667 1.009765625  1.64322916666667 1.232421875  C 1.34635416666667 1.455078125  1.109375 1.720703125  0.932291666666667 2.029296875  C 0.755208333333333 2.337890625  0.666666666666667 2.66145833333333  0.666666666666667 3  C 0.666666666666667 3.33854166666667  0.755208333333333 3.662109375  0.932291666666667 3.970703125  C 1.109375 4.279296875  1.34635416666667 4.544921875  1.64322916666667 4.767578125  C 1.94010416666667 4.990234375  2.29427083333333 5.16796875  2.70572916666667 5.30078125  C 3.1171875 5.43359375  3.54861111111111 5.5  4 5.5  C 4.45138888888889 5.5  4.8828125 5.43359375  5.29427083333333 5.30078125  C 5.70572916666667 5.16796875  6.05989583333333 4.990234375  6.35677083333333 4.767578125  C 6.65364583333333 4.544921875  6.890625 4.279296875  7.06770833333333 3.970703125  C 7.24479166666667 3.662109375  7.33333333333333 3.33854166666667  7.33333333333333 3  C 7.33333333333333 2.66145833333333  7.24479166666667 2.337890625  7.06770833333333 2.029296875  C 6.890625 1.720703125  6.65364583333333 1.455078125  6.35677083333333 1.232421875  C 6.05989583333333 1.009765625  5.70572916666667 0.83203125  5.29427083333333 0.69921875  Z M 7.46354166666667 1.494140625  C 7.82118055555555 1.95377604166667  8 2.45572916666667  8 3  C 8 3.54427083333333  7.82118055555555 4.04622395833333  7.46354166666667 4.505859375  C 7.10590277777778 4.96549479166667  6.62065972222222 5.32942708333333  6.0078125 5.59765625  C 5.39496527777778 5.86588541666667  4.72569444444444 6  4 6  C 3.27430555555556 6  2.60503472222222 5.86588541666667  1.9921875 5.59765625  C 1.37934027777778 5.32942708333333  0.894097222222222 4.96549479166667  0.536458333333333 4.505859375  C 0.178819444444444 4.04622395833333  0 3.54427083333333  0 3  C 0 2.45572916666667  0.178819444444444 1.95377604166667  0.536458333333333 1.494140625  C 0.894097222222222 1.03450520833333  1.37934027777778 0.670572916666666  1.9921875 0.40234375  C 2.60503472222222 0.134114583333333  3.27430555555556 0  4 0  C 4.72569444444444 0  5.39496527777778 0.134114583333333  6.0078125 0.40234375  C 6.62065972222222 0.670572916666666  7.10590277777778 1.03450520833333  7.46354166666667 1.494140625  Z " fill-rule="nonzero" fill="#333333" stroke="none" transform="matrix(1 0 0 1 875 65 )" />
  </g>
</svg>