<?xml version="1.0" encoding="utf-8"?>
<svg version="1.1" xmlns:xlink="http://www.w3.org/1999/xlink" width="80px" height="81px" xmlns="http://www.w3.org/2000/svg">
  <g transform="matrix(1 0 0 1 -548 -563 )">
    <path d="M 588 563  C 610.4 563  628 580.82  628 603.5  C 628 626.18  610.4 644  588 644  C 565.6 644  548 626.18  548 603.5  C 548 580.82  565.6 563  588 563  Z " fill-rule="nonzero" fill="#ffffff" stroke="none" />
    <path d="M 588 563.5  C 610.12 563.5  627.5 581.1  627.5 603.5  C 627.5 625.9  610.12 643.5  588 643.5  C 565.88 643.5  548.5 625.9  548.5 603.5  C 548.5 581.1  565.88 563.5  588 563.5  Z " stroke-width="1" stroke="#797979" fill="none" />
  </g>
</svg>