<?xml version="1.0" encoding="utf-8"?>
<svg version="1.1" xmlns:xlink="http://www.w3.org/1999/xlink" width="35px" height="51px" xmlns="http://www.w3.org/2000/svg">
  <g transform="matrix(1 0 0 1 -571 -580 )">
    <path d="M 34.4227430555556 20.1977163461538  C 34.8075810185185 20.5859375  35 21.0456730769231  35 21.5769230769231  L 35 25.5  C 35 30.015625  33.5062210648148 33.9438100961538  30.5186631944444 37.2845552884615  C 27.5311053240741 40.6253004807692  23.8396990740741 42.5408653846154  19.4444444444444 43.03125  L 19.4444444444444 47.0769230769231  L 27.2222222222222 47.0769230769231  C 27.7488425925926 47.0769230769231  28.2045717592593 47.2710336538462  28.5894097222222 47.6592548076923  C 28.9742476851852 48.0474759615385  29.1666666666667 48.5072115384615  29.1666666666667 49.0384615384615  C 29.1666666666667 49.5697115384615  28.9742476851852 50.0294471153846  28.5894097222222 50.4176682692308  C 28.2045717592593 50.8058894230769  27.7488425925926 51  27.2222222222222 51  L 7.77777777777778 51  C 7.25115740740741 51  6.79542824074074 50.8058894230769  6.41059027777778 50.4176682692308  C 6.02575231481481 50.0294471153846  5.83333333333333 49.5697115384615  5.83333333333333 49.0384615384615  C 5.83333333333333 48.5072115384615  6.02575231481481 48.0474759615385  6.41059027777778 47.6592548076923  C 6.79542824074074 47.2710336538462  7.25115740740741 47.0769230769231  7.77777777777778 47.0769230769231  L 15.5555555555556 47.0769230769231  L 15.5555555555556 43.03125  C 11.1603009259259 42.5408653846154  7.46889467592593 40.6253004807692  4.48133680555556 37.2845552884615  C 1.49377893518519 33.9438100961538  0 30.015625  0 25.5  L 0 21.5769230769231  C 0 21.0456730769231  0.192418981481481 20.5859375  0.577256944444444 20.1977163461538  C 0.962094907407407 19.8094951923077  1.41782407407407 19.6153846153846  1.94444444444444 19.6153846153846  C 2.47106481481481 19.6153846153846  2.92679398148148 19.8094951923077  3.31163194444444 20.1977163461538  C 3.69646990740741 20.5859375  3.88888888888889 21.0456730769231  3.88888888888889 21.5769230769231  L 3.88888888888889 25.5  C 3.88888888888889 29.2800480769231  5.22063078703704 32.5135216346154  7.88411458333333 35.2004206730769  C 10.5475983796296 37.8873197115385  13.7528935185185 39.2307692307692  17.5 39.2307692307692  C 21.2471064814815 39.2307692307692  24.4524016203704 37.8873197115385  27.1158854166667 35.2004206730769  C 29.779369212963 32.5135216346154  31.1111111111111 29.2800480769231  31.1111111111111 25.5  L 31.1111111111111 21.5769230769231  C 31.1111111111111 21.0456730769231  31.3035300925926 20.5859375  31.6883680555556 20.1977163461538  C 32.0732060185185 19.8094951923077  32.5289351851852 19.6153846153846  33.0555555555556 19.6153846153846  C 33.5821759259259 19.6153846153846  34.0379050925926 19.8094951923077  34.4227430555556 20.1977163461538  Z M 24.3663194444444 2.88100961538461  C 26.2702546296296 4.80168269230769  27.2222222222222 7.11057692307692  27 9.80769230769231  L 27 25.5  C 27.2222222222222 28.1971153846154  26.2702546296296 30.5060096153846  24.3663194444444 32.4266826923077  C 22.4623842592593 34.3473557692308  20.1736111111111 35.3076923076923  17.5 35.3076923076923  C 14.8263888888889 35.3076923076923  12.5376157407407 34.3473557692308  10.6336805555556 32.4266826923077  C 8.72974537037037 30.5060096153846  7.77777777777778 28.1971153846154  8 25.5  L 8 9.80769230769231  C 7.77777777777778 7.11057692307692  8.72974537037037 4.80168269230769  10.6336805555556 2.88100961538461  C 12.5376157407407 0.960336538461544  14.8263888888889 0  17.5 0  C 20.1736111111111 0  22.4623842592593 0.960336538461544  24.3663194444444 2.88100961538461  Z " fill-rule="nonzero" fill="#f10606" stroke="none" transform="matrix(1 0 0 1 571 580 )" />
  </g>
</svg>