<?xml version="1.0" encoding="utf-8"?>
<svg version="1.1" xmlns:xlink="http://www.w3.org/1999/xlink" width="10px" height="10px" xmlns="http://www.w3.org/2000/svg">
  <g transform="matrix(1 0 0 1 -429 -511 )">
    <path d="M 434 511  C 436.8 511  439 513.2  439 516  C 439 518.8  436.8 521  434 521  C 431.2 521  429 518.8  429 516  C 429 513.2  431.2 511  434 511  Z " fill-rule="nonzero" fill="#f10606" stroke="none" />
    <path d="M 434 511.5  C 436.52 511.5  438.5 513.48  438.5 516  C 438.5 518.52  436.52 520.5  434 520.5  C 431.48 520.5  429.5 518.52  429.5 516  C 429.5 513.48  431.48 511.5  434 511.5  Z " stroke-width="1" stroke="#797979" fill="none" />
  </g>
</svg>