<?xml version="1.0" encoding="utf-8"?>
<svg version="1.1" xmlns:xlink="http://www.w3.org/1999/xlink" width="40px" height="25px" xmlns="http://www.w3.org/2000/svg">
  <g transform="matrix(1 0 0 1 -707 -500 )">
    <path d="M 7.66666666666667 16.6666666666667  C 7.88888888888889 16.6666666666667  8 16.7824074074074  8 17.0138888888889  L 8 19.0972222222222  C 8 19.3287037037037  7.88888888888889 19.4444444444444  7.66666666666667 19.4444444444444  L 5.66666666666667 19.4444444444444  C 5.44444444444444 19.4444444444444  5.33333333333333 19.3287037037037  5.33333333333333 19.0972222222222  L 5.33333333333333 17.0138888888889  C 5.33333333333333 16.7824074074074  5.44444444444444 16.6666666666667  5.66666666666667 16.6666666666667  L 7.66666666666667 16.6666666666667  Z M 10.3333333333333 11.1111111111111  C 10.5555555555556 11.1111111111111  10.6666666666667 11.2268518518518  10.6666666666667 11.4583333333333  L 10.6666666666667 13.5416666666667  C 10.6666666666667 13.7731481481481  10.5555555555556 13.8888888888889  10.3333333333333 13.8888888888889  L 5.66666666666667 13.8888888888889  C 5.44444444444444 13.8888888888889  5.33333333333333 13.7731481481481  5.33333333333333 13.5416666666667  L 5.33333333333333 11.4583333333333  C 5.33333333333333 11.2268518518518  5.44444444444444 11.1111111111111  5.66666666666667 11.1111111111111  L 10.3333333333333 11.1111111111111  Z M 7.66666666666667 5.55555555555556  C 7.88888888888889 5.55555555555556  8 5.67129629629629  8 5.90277777777778  L 8 7.98611111111111  C 8 8.21759259259259  7.88888888888889 8.33333333333333  7.66666666666667 8.33333333333333  L 5.66666666666667 8.33333333333333  C 5.44444444444444 8.33333333333333  5.33333333333333 8.21759259259259  5.33333333333333 7.98611111111111  L 5.33333333333333 5.90277777777778  C 5.33333333333333 5.67129629629629  5.44444444444444 5.55555555555556  5.66666666666667 5.55555555555556  L 7.66666666666667 5.55555555555556  Z M 29 16.6666666666667  C 29.2222222222222 16.6666666666667  29.3333333333333 16.7824074074074  29.3333333333333 17.0138888888889  L 29.3333333333333 19.0972222222222  C 29.3333333333333 19.3287037037037  29.2222222222222 19.4444444444444  29 19  L 11 19  C 10.7777777777778 19.4444444444444  10.6666666666667 19.3287037037037  10.6666666666667 19.0972222222222  L 10.6666666666667 17.0138888888889  C 10.6666666666667 16.7824074074074  10.7777777777778 16.6666666666667  11 16.6666666666667  L 29 16.6666666666667  Z M 15.6666666666667 11.1111111111111  C 15.8888888888889 11.1111111111111  16 11.2268518518518  16 11.4583333333333  L 16 13.5416666666667  C 16 13.7731481481481  15.8888888888889 13.8888888888889  15.6666666666667 13.8888888888889  L 13.6666666666667 13.8888888888889  C 13.4444444444444 13.8888888888889  13.3333333333333 13.7731481481481  13.3333333333333 13.5416666666667  L 13.3333333333333 11.4583333333333  C 13.3333333333333 11.2268518518518  13.4444444444444 11.1111111111111  13.6666666666667 11.1111111111111  L 15.6666666666667 11.1111111111111  Z M 13 5.55555555555556  C 13.2222222222222 5.55555555555556  13.3333333333333 5.67129629629629  13.3333333333333 5.90277777777778  L 13.3333333333333 7.98611111111111  C 13.3333333333333 8.21759259259259  13.2222222222222 8.33333333333333  13 8.33333333333333  L 11 8.33333333333333  C 10.7777777777778 8.33333333333333  10.6666666666667 8.21759259259259  10.6666666666667 7.98611111111111  L 10.6666666666667 5.90277777777778  C 10.6666666666667 5.67129629629629  10.7777777777778 5.55555555555556  11 5.55555555555556  L 13 5.55555555555556  Z M 21 11.1111111111111  C 21.2222222222222 11.1111111111111  21.3333333333333 11.2268518518518  21.3333333333333 11.4583333333333  L 21.3333333333333 13.5416666666667  C 21.3333333333333 13.7731481481481  21.2222222222222 13.8888888888889  21 13.8888888888889  L 19 13.8888888888889  C 18.7777777777778 13.8888888888889  18.6666666666667 13.7731481481481  18.6666666666667 13.5416666666667  L 18.6666666666667 11.4583333333333  C 18.6666666666667 11.2268518518518  18.7777777777778 11.1111111111111  19 11.1111111111111  L 21 11.1111111111111  Z M 18.3333333333333 5.55555555555556  C 18.5555555555556 5.55555555555556  18.6666666666667 5.67129629629629  18.6666666666667 5.90277777777778  L 18.6666666666667 7.98611111111111  C 18.6666666666667 8.21759259259259  18.5555555555556 8.33333333333333  18.3333333333333 8.33333333333333  L 16.3333333333333 8.33333333333333  C 16.1111111111111 8.33333333333333  16 8.21759259259259  16 7.98611111111111  L 16 5.90277777777778  C 16 5.67129629629629  16.1111111111111 5.55555555555556  16.3333333333333 5.55555555555556  L 18.3333333333333 5.55555555555556  Z M 26.3333333333333 11.1111111111111  C 26.5555555555556 11.1111111111111  26.6666666666667 11.2268518518518  26.6666666666667 11.4583333333333  L 26.6666666666667 13.5416666666667  C 26.6666666666667 13.7731481481481  26.5555555555556 13.8888888888889  26.3333333333333 13.8888888888889  L 24.3333333333333 13.8888888888889  C 24.1111111111111 13.8888888888889  24 13.7731481481481  24 13.5416666666667  L 24 11.4583333333333  C 24 11.2268518518518  24.1111111111111 11.1111111111111  24.3333333333333 11.1111111111111  L 26.3333333333333 11.1111111111111  Z M 34.3333333333333 16.6666666666667  C 34.5555555555556 16.6666666666667  34.6666666666667 16.7824074074074  34.6666666666667 17.0138888888889  L 34.6666666666667 19.0972222222222  C 34.6666666666667 19.3287037037037  34.5555555555556 19.4444444444444  34.3333333333333 19.4444444444444  L 32.3333333333333 19.4444444444444  C 32.1111111111111 19.4444444444444  32 19.3287037037037  32 19.0972222222222  L 32 17.0138888888889  C 32 16.7824074074074  32.1111111111111 16.6666666666667  32.3333333333333 16.6666666666667  L 34.3333333333333 16.6666666666667  Z M 23.6666666666667 5.55555555555556  C 23.8888888888889 5.55555555555556  24 5.67129629629629  24 5.90277777777778  L 24 7.98611111111111  C 24 8.21759259259259  23.8888888888889 8.33333333333333  23.6666666666667 8.33333333333333  L 21.6666666666667 8.33333333333333  C 21.4444444444445 8.33333333333333  21.3333333333333 8.21759259259259  21.3333333333333 7.98611111111111  L 21.3333333333333 5.90277777777778  C 21.3333333333333 5.67129629629629  21.4444444444445 5.55555555555556  21.6666666666667 5.55555555555556  L 23.6666666666667 5.55555555555556  Z M 29 5.55555555555556  C 29.2222222222222 5.55555555555556  29.3333333333333 5.67129629629629  29.3333333333333 5.90277777777778  L 29.3333333333333 7.98611111111111  C 29.3333333333333 8.21759259259259  29.2222222222222 8.33333333333333  29 8.33333333333333  L 27 8.33333333333333  C 26.7777777777778 8.33333333333333  26.6666666666667 8.21759259259259  26.6666666666667 7.98611111111111  L 26.6666666666667 5.90277777777778  C 26.6666666666667 5.67129629629629  26.7777777777778 5.55555555555556  27 5.55555555555556  L 29 5.55555555555556  Z M 34.3333333333333 5.55555555555556  C 34.5555555555556 5.55555555555556  34.6666666666667 5.67129629629629  34.6666666666667 5.90277777777778  L 34.6666666666667 13.5416666666667  C 34.6666666666667 13.7731481481481  34.5555555555556 13.8888888888889  34.3333333333333 13.8888888888889  L 29.6666666666667 13.8888888888889  C 29.4444444444444 13.8888888888889  29.3333333333333 13.7731481481481  29.3333333333333 13.5416666666667  L 29.3333333333333 11.4583333333333  C 29.3333333333333 11.2268518518518  29.4444444444444 11.1111111111111  29.6666666666667 11.1111111111111  L 32 11.1111111111111  L 32 5.90277777777778  C 32 5.67129629629629  32.1111111111111 5.55555555555556  32.3333333333333 5.55555555555556  L 34.3333333333333 5.55555555555556  Z M 3 22  L 37 22  L 37 3  L 3 3  L 3 22  Z M 39.21875 0.813802083333334  C 39.7395833333333 1.35633680555556  40 2.01099537037037  40 2.77777777777778  L 40 22.2222222222222  C 40 22.9890046296296  39.7395833333333 23.6436631944444  39.21875 24.1861979166667  C 38.6979166666667 24.7287326388889  38.0694444444445 25  37.3333333333333 25  L 2.66666666666667 25  C 1.93055555555556 25  1.30208333333333 24.7287326388889  0.78125 24.1861979166667  C 0.260416666666667 23.6436631944444  0 22.9890046296296  0 22.2222222222222  L 0 2.77777777777778  C 0 2.01099537037037  0.260416666666667 1.35633680555556  0.78125 0.813802083333334  C 1.30208333333333 0.27126736111111  1.93055555555556 0  2.66666666666667 0  L 37.3333333333333 0  C 38.0694444444445 0  38.6979166666667 0.27126736111111  39.21875 0.813802083333334  Z " fill-rule="nonzero" fill="#000000" stroke="none" fill-opacity="0.349019607843137" transform="matrix(1 0 0 1 707 500 )" />
  </g>
</svg>