<?xml version="1.0" encoding="utf-8"?>
<svg version="1.1" xmlns:xlink="http://www.w3.org/1999/xlink" width="18px" height="18px" xmlns="http://www.w3.org/2000/svg">
  <g transform="matrix(1 0 0 1 -390 -160 )">
    <path d="M 8.10216346153846 1.54430379746835  C 8.23918269230769 1.70464135021097  8.30769230769231 1.89451476793249  8.30769230769231 2.11392405063291  L 8.30769230769231 15.8860759493671  C 8.30769230769231 16.1054852320675  8.23918269230769 16.295358649789  8.10216346153846 16.4556962025316  C 7.96514423076923 16.6160337552743  7.80288461538462 16.6962025316456  7.61538461538462 16.6962025316456  C 7.42788461538462 16.6962025316456  7.265625 16.6160337552743  7.12860576923077 16.4556962025316  L 3.52644230769231 12.2405063291139  L 0.692307692307692 12.2405063291139  C 0.504807692307692 12.2405063291139  0.342548076923077 12.1603375527426  0.205528846153846 12  C 0.0685096153846154 11.8396624472574  0 11.6497890295359  0 11.4303797468354  L 0 6.56962025316456  C 0 6.35021097046413  0.0685096153846154 6.16033755274261  0.205528846153846 6  C 0.342548076923077 5.83966244725738  0.504807692307692 5.75949367088608  0.692307692307692 5.75949367088608  L 3.52644230769231 5.75949367088608  L 7.12860576923077 1.54430379746835  C 7.265625 1.38396624472574  7.42788461538462 1.30379746835443  7.61538461538462 1.30379746835443  C 7.80288461538462 1.30379746835443  7.96514423076923 1.38396624472574  8.10216346153846 1.54430379746835  Z M 12.0018028846154 7.20253164556962  C 12.3082932692308 7.75949367088608  12.4615384615385 8.35864978902953  12.4615384615385 9  C 12.4615384615385 9.64135021097046  12.3082932692308 10.2383966244726  12.0018028846154 10.7911392405063  C 11.6953125 11.3438818565401  11.2896634615385 11.7383966244726  10.7848557692308 11.9746835443038  C 10.7127403846154 12.0168776371308  10.6225961538462 12.0379746835443  10.5144230769231 12.0379746835443  C 10.3269230769231 12.0379746835443  10.1646634615385 11.9599156118143  10.0276442307692 11.8037974683544  C 9.890625 11.6476793248945  9.82211538461538 11.4556962025316  9.82211538461538 11.2278481012658  C 9.82211538461538 11.0506329113924  9.86538461538462 10.9008438818565  9.95192307692308 10.7784810126582  C 10.0384615384615 10.6561181434599  10.1430288461538 10.5506329113924  10.265625 10.4620253164557  C 10.3882211538462 10.373417721519  10.5108173076923 10.2763713080169  10.6334134615385 10.1708860759494  C 10.7560096153846 10.0654008438819  10.8605769230769 9.91350210970464  10.9471153846154 9.71518987341772  C 11.0336538461538 9.5168776371308  11.0769230769231 9.27848101265823  11.0769230769231 9  C 11.0769230769231 8.72151898734177  11.0336538461538 8.4831223628692  10.9471153846154 8.28481012658228  C 10.8605769230769 8.08649789029536  10.7560096153846 7.93459915611814  10.6334134615385 7.82911392405063  C 10.5108173076923 7.72362869198312  10.3882211538462 7.62658227848101  10.265625 7.5379746835443  C 10.1430288461538 7.44936708860759  10.0384615384615 7.34388185654008  9.95192307692308 7.22151898734177  C 9.86538461538462 7.09915611814346  9.82211538461538 6.94936708860759  9.82211538461538 6.77215189873418  C 9.82211538461538 6.54430379746835  9.890625 6.35232067510548  10.0276442307692 6.19620253164557  C 10.1646634615385 6.04008438818565  10.3269230769231 5.9620253164557  10.5144230769231 5.9620253164557  C 10.6225961538462 5.9620253164557  10.7127403846154 5.9831223628692  10.7848557692308 6.0253164556962  C 11.2896634615385 6.25316455696203  11.6953125 6.64556962025317  12.0018028846154 7.20253164556962  Z M 14.3112980769231 5.42405063291139  C 14.9242788461538 6.5168776371308  15.2307692307692 7.70886075949367  15.2307692307692 9  C 15.2307692307692 10.2911392405063  14.9242788461538 11.4831223628692  14.3112980769231 12.5759493670886  C 13.6983173076923 13.668776371308  12.8870192307692 14.464135021097  11.8774038461538 14.9620253164557  C 11.7836538461538 15.0042194092827  11.6935096153846 15.0253164556962  11.6069711538462 15.0253164556962  C 11.4122596153846 15.0253164556962  11.2463942307692 14.9451476793249  11.109375 14.7848101265823  C 10.9723557692308 14.6244725738397  10.9038461538462 14.4345991561181  10.9038461538462 14.2151898734177  C 10.9038461538462 13.8860759493671  11.0444711538462 13.6371308016878  11.3257211538462 13.4683544303797  C 11.7295673076923 13.2236286919831  12.0036057692308 13.0379746835443  12.1478365384615 12.9113924050633  C 12.6814903846154 12.4556962025316  13.0979567307692 11.8839662447257  13.3972355769231 11.1962025316456  C 13.6965144230769 10.5084388185654  13.8461538461538 9.77637130801688  13.8461538461538 9  C 13.8461538461538 8.22362869198312  13.6965144230769 7.4915611814346  13.3972355769231 6.80379746835443  C 13.0979567307692 6.11603375527426  12.6814903846154 5.54430379746835  12.1478365384615 5.08860759493671  C 12.0036057692308 4.9620253164557  11.7295673076923 4.77637130801688  11.3257211538462 4.53164556962025  C 11.0444711538462 4.36286919831224  10.9038461538462 4.11392405063291  10.9038461538462 3.78481012658228  C 10.9038461538462 3.56540084388185  10.9723557692308 3.37552742616034  11.109375 3.21518987341772  C 11.2463942307692 3.05485232067511  11.4086538461538 2.9746835443038  11.5961538461538 2.9746835443038  C 11.6899038461538 2.9746835443038  11.7836538461538 2.9957805907173  11.8774038461538 3.0379746835443  C 12.8870192307692 3.53586497890295  13.6983173076923 4.33122362869198  14.3112980769231 5.42405063291139  Z M 16.6262019230769 3.65189873417722  C 17.5420673076923 5.27637130801688  18 7.0590717299578  18 9  C 18 10.9409282700422  17.5420673076923 12.7236286919831  16.6262019230769 14.3481012658228  C 15.7103365384615 15.9725738396624  14.4915865384615 17.168776371308  12.9699519230769 17.9367088607595  C 12.8762019230769 17.9789029535865  12.7824519230769 18  12.6887019230769 18  C 12.5012019230769 18  12.3389423076923 17.9198312236287  12.2019230769231 17.7594936708861  C 12.0649038461538 17.5991561181435  11.9963942307692 17.4092827004219  11.9963942307692 17.1898734177215  C 11.9963942307692 16.8860759493671  12.1370192307692 16.6371308016878  12.4182692307692 16.4430379746835  C 12.46875 16.4092827004219  12.5498798076923 16.3649789029536  12.6616586538462 16.3101265822785  C 12.7734375 16.2552742616034  12.8545673076923 16.210970464135  12.9050480769231 16.1772151898734  C 13.2367788461538 15.9662447257384  13.5324519230769 15.7510548523207  13.7920673076923 15.5316455696203  C 14.6790865384615 14.7637130801688  15.3713942307692 13.8059071729958  15.8689903846154 12.6582278481013  C 16.3665865384615 11.5105485232068  16.6153846153846 10.2911392405063  16.6153846153846 9  C 16.6153846153846 7.70886075949367  16.3665865384615 6.48945147679325  15.8689903846154 5.34177215189873  C 15.3713942307692 4.19409282700422  14.6790865384615 3.23628691983122  13.7920673076923 2.46835443037975  C 13.5324519230769 2.24894514767932  13.2367788461538 2.0337552742616  12.9050480769231 1.82278481012658  C 12.8545673076923 1.78902953586498  12.7734375 1.74472573839662  12.6616586538462 1.68987341772152  C 12.5498798076923 1.63502109704641  12.46875 1.59071729957806  12.4182692307692 1.55696202531646  C 12.1370192307692 1.36286919831223  11.9963942307692 1.11392405063291  11.9963942307692 0.810126582278482  C 11.9963942307692 0.590717299578057  12.0649038461538 0.400843881856538  12.2019230769231 0.240506329113924  C 12.3389423076923 0.0801687763713073  12.5012019230769 0  12.6887019230769 0  C 12.7824519230769 0  12.8762019230769 0.021097046413501  12.9699519230769 0.0632911392405069  C 14.4915865384615 0.831223628691981  15.7103365384615 2.02742616033755  16.6262019230769 3.65189873417722  Z " fill-rule="nonzero" fill="#f10606" stroke="none" transform="matrix(1 0 0 1 390 160 )" />
  </g>
</svg>