<?xml version="1.0" encoding="utf-8"?>
<svg version="1.1" xmlns:xlink="http://www.w3.org/1999/xlink" width="10px" height="11px" xmlns="http://www.w3.org/2000/svg">
  <g transform="matrix(1 0 0 1 -352 -226 )">
    <path d="M 357 226  C 359.8 226  362 228.42  362 231.5  C 362 234.58  359.8 237  357 237  C 354.2 237  352 234.58  352 231.5  C 352 228.42  354.2 226  357 226  Z " fill-rule="nonzero" fill="#f10606" stroke="none" />
    <path d="M 357 226.5  C 359.52 226.5  361.5 228.7  361.5 231.5  C 361.5 234.3  359.52 236.5  357 236.5  C 354.48 236.5  352.5 234.3  352.5 231.5  C 352.5 228.7  354.48 226.5  357 226.5  Z " stroke-width="1" stroke="#797979" fill="none" />
  </g>
</svg>