<?xml version="1.0" encoding="utf-8"?>
<svg version="1.1" xmlns:xlink="http://www.w3.org/1999/xlink" width="39px" height="47px" xmlns="http://www.w3.org/2000/svg">
  <defs>
    <filter x="338px" y="111px" width="39px" height="47px" filterUnits="userSpaceOnUse" id="filter1">
      <feOffset dx="0" dy="0" in="SourceAlpha" result="shadowOffsetInner" />
      <feGaussianBlur stdDeviation="5" in="shadowOffsetInner" result="shadowGaussian" />
      <feComposite in2="shadowGaussian" operator="atop" in="SourceAlpha" result="shadowComposite" />
      <feColorMatrix type="matrix" values="0 0 0 0 0  0 0 0 0 0  0 0 0 0 0  0 0 0 0.313725490196078 0  " in="shadowComposite" />
    </filter>
    <g id="widget2">
      <path d="M 12.8583984375 12.181640625  C 13.7861328125 11.302734375  14.25 10.2421875  14.25 9  C 14.25 7.7578125  13.7861328125 6.697265625  12.8583984375 5.818359375  C 11.9306640625 4.939453125  10.8111979166667 4.5  9.5 4.5  C 8.18880208333333 4.5  7.0693359375 4.939453125  6.1416015625 5.818359375  C 5.2138671875 6.697265625  4.75 7.7578125  4.75 9  C 4.75 10.2421875  5.2138671875 11.302734375  6.1416015625 12.181640625  C 7.0693359375 13.060546875  8.18880208333333 13.5  9.5 13.5  C 10.8111979166667 13.5  11.9306640625 13.060546875  12.8583984375 12.181640625  Z M 16.216796875 2.63671875  C 18.072265625 4.39453125  19 6.515625  19 9  C 19 10.27734375  18.7958984375 11.326171875  18.3876953125 12.146484375  L 11.6337890625 25.751953125  C 11.4358723958333 26.138671875  11.14208984375 26.443359375  10.75244140625 26.666015625  C 10.36279296875 26.888671875  9.9453125 27  9.5 27  C 9.0546875 27  8.63720703125 26.888671875  8.24755859375 26.666015625  C 7.85791015625 26.443359375  7.5703125 26.138671875  7.384765625 25.751953125  L 0.6123046875 12.146484375  C 0.2041015625 11.326171875  0 10.27734375  0 9  C 0 6.515625  0.927734375 4.39453125  2.783203125 2.63671875  C 4.638671875 0.878906250000001  6.87760416666667 0  9.5 0  C 12.1223958333333 0  14.361328125 0.878906250000001  16.216796875 2.63671875  Z " fill-rule="nonzero" fill="#ffffff" stroke="none" transform="matrix(1 0 0 1 348 121 )" />
    </g>
  </defs>
  <g transform="matrix(1 0 0 1 -338 -111 )">
    <use xlink:href="#widget2" filter="url(#filter1)" />
    <use xlink:href="#widget2" />
  </g>
</svg>