<?xml version="1.0" encoding="utf-8"?>
<svg version="1.1" xmlns:xlink="http://www.w3.org/1999/xlink" width="30px" height="30px" xmlns="http://www.w3.org/2000/svg">
  <g transform="matrix(1 0 0 1 -470 -265 )">
    <path d="M 24.3179156908665 18.7353433835846  C 24.8507025761124 17.5460636515913  25.1170960187354 16.2981574539363  25.1170960187354 14.9916247906198  C 25.1170960187354 13.6850921273032  24.8507025761124 12.4371859296482  24.3179156908665 11.2479061976549  C 23.7851288056206 10.0586264656616  23.0649882903981 9.03126744835287  22.1574941451991 8.16582914572864  C 21.25 7.30039084310441  20.1727166276347 6.61362367392518  18.925644028103 6.10552763819096  C 17.6785714285714 5.59743160245672  16.3700234192037 5.34338358458962  15 5.34338358458962  C 13.6299765807963 5.34338358458962  12.3214285714286 5.59743160245672  11.074355971897 6.10552763819096  C 9.82728337236534 6.61362367392518  8.75 7.30039084310441  7.84250585480094 8.16582914572864  C 6.93501170960187 9.03126744835287  6.21487119437939 10.0586264656616  5.68208430913349 11.2479061976549  C 5.14929742388759 12.4371859296482  4.88290398126464 13.6850921273032  4.88290398126464 14.9916247906198  C 4.88290398126464 16.2981574539363  5.14929742388759 17.5460636515913  5.68208430913349 18.7353433835846  C 6.21487119437939 19.9246231155779  6.93501170960187 20.9519821328867  7.84250585480094 21.8174204355109  C 8.75 22.6828587381351  9.82728337236534 23.3696259073144  11.074355971897 23.8777219430486  C 12.3214285714286 24.3858179787828  13.6299765807963 24.6398659966499  15 24.6398659966499  C 16.3700234192037 24.6398659966499  17.6785714285714 24.3858179787828  18.925644028103 23.8777219430486  C 20.1727166276347 23.3696259073144  21.25 22.6828587381351  22.1574941451991 21.8174204355109  C 23.0649882903981 20.9519821328867  23.7851288056206 19.9246231155779  24.3179156908665 18.7353433835846  Z M 29.8946135831382 19.1457286432161  C 30 19.2797319932998  30.0234192037471 19.4416527079844  29.9648711943794 19.6314907872697  C 29.9180327868852 19.7989949748744  29.8009367681499 19.9106644332775  29.6135831381733 19.9664991624791  L 24.4847775175644 21.5745393634841  L 24.4847775175644 26.7001675041876  C 24.4847775175644 26.8788386376326  24.4086651053864 27.0240089335567  24.2564402810304 27.1356783919598  C 24.0807962529274 27.2473478503629  23.9110070257611 27.2696817420436  23.7470725995316 27.2026800670017  L 18.6182669789227 25.6281407035176  L 15.4566744730679 29.7822445561139  C 15.3395784543326 29.927414852038  15.1873536299766 30  15 30  C 14.8126463700234 30  14.6604215456674 29.927414852038  14.5433255269321 29.7822445561139  L 11.3817330210773 25.6281407035176  L 6.25292740046838 27.2026800670017  C 6.08899297423888 27.2696817420436  5.9192037470726 27.2473478503629  5.74355971896955 27.1356783919598  C 5.59133489461358 27.0240089335567  5.5152224824356 26.8788386376326  5.5152224824356 26.7001675041876  L 5.5152224824356 21.5745393634841  L 0.386416861826698 19.9664991624791  C 0.199063231850117 19.9106644332775  0.0819672131147541 19.7989949748744  0.0351288056206089 19.6314907872697  C -0.0234192037470725 19.4416527079844  0 19.2797319932998  0.105386416861827 19.1457286432161  L 3.26697892271663 14.9916247906198  L 0.105386416861827 10.8375209380235  C 0 10.6923506420994  -0.0234192037470725 10.5304299274148  0.0351288056206089 10.3517587939699  C 0.0819672131147541 10.1842546063652  0.199063231850117 10.072585147962  0.386416861826698 10.0167504187605  L 5.5152224824356 8.40871021775544  L 5.5152224824356 3.28308207705193  C 5.5152224824356 3.10441094360692  5.59133489461358 2.95924064768285  5.74355971896955 2.84757118927973  C 5.9192037470726 2.7359017308766  6.08899297423888 2.71356783919598  6.25292740046838 2.78056951423786  L 11.3817330210773 4.35510887772194  L 14.5433255269321 0.201005025125627  C 14.6487119437939 0.0670016750418745  14.8009367681499 0  15 0  C 15.1990632318501 0  15.3512880562061 0.0670016750418745  15.4566744730679 0.201005025125627  L 18.6182669789227 4.35510887772194  L 23.7470725995316 2.78056951423786  C 23.9110070257611 2.71356783919598  24.0807962529274 2.7359017308766  24.2564402810304 2.84757118927973  C 24.4086651053864 2.95924064768285  24.4847775175644 3.10441094360692  24.4847775175644 3.28308207705193  L 24.4847775175644 8.40871021775544  L 29.6135831381733 10.0167504187605  C 29.8009367681499 10.072585147962  29.9180327868852 10.1842546063652  29.9648711943794 10.3517587939699  C 30.0234192037471 10.5304299274148  30 10.6923506420994  29.8946135831382 10.8375209380235  L 26.7330210772834 14.9916247906198  L 29.8946135831382 19.1457286432161  Z " fill-rule="nonzero" fill="#efcc46" stroke="none" fill-opacity="0.796078431372549" transform="matrix(1 0 0 1 470 265 )" />
  </g>
</svg>