<?xml version="1.0" encoding="utf-8"?>
<svg version="1.1" xmlns:xlink="http://www.w3.org/1999/xlink" width="25px" height="25px" xmlns="http://www.w3.org/2000/svg">
  <g transform="matrix(1 0 0 1 -425 -448 )">
    <path d="M 20.2649297423888 15.6127861529872  C 20.708918813427 14.6217197096594  20.9309133489461 13.5817978782803  20.9309133489461 12.4930206588498  C 20.9309133489461 11.4042434394193  20.708918813427 10.3643216080402  20.2649297423888 9.37325516471245  C 19.8209406713505 8.3821887213847  19.2208235753318 7.52605620696073  18.4645784543326 6.80485762144054  C 17.7083333333333 6.08365903592034  16.8105971896956 5.51135306160432  15.7713700234192 5.08793969849246  C 14.7321428571429 4.6645263353806  13.6416861826698 4.45281965382468  12.5 4.45281965382468  C 11.3583138173302 4.45281965382468  10.2678571428571 4.6645263353806  9.2286299765808 5.08793969849246  C 8.18940281030445 5.51135306160432  7.29166666666667 6.08365903592034  6.53542154566745 6.80485762144054  C 5.77917642466823 7.52605620696073  5.17905932864949 8.3821887213847  4.73507025761124 9.37325516471245  C 4.29108118657299 10.3643216080402  4.06908665105386 11.4042434394193  4.06908665105386 12.4930206588498  C 4.06908665105386 13.5817978782803  4.29108118657299 14.6217197096594  4.73507025761124 15.6127861529872  C 5.17905932864949 16.6038525963149  5.77917642466823 17.4599851107389  6.53542154566745 18.1811836962591  C 7.29166666666667 18.9023822817793  8.18940281030445 19.4746882560953  9.2286299765808 19.8981016192071  C 10.2678571428571 20.321514982319  11.3583138173302 20.5332216638749  12.5 20.5332216638749  C 13.6416861826698 20.5332216638749  14.7321428571429 20.321514982319  15.7713700234192 19.8981016192071  C 16.8105971896956 19.4746882560953  17.7083333333333 18.9023822817793  18.4645784543326 18.1811836962591  C 19.2208235753318 17.4599851107389  19.8209406713505 16.6038525963149  20.2649297423888 15.6127861529872  Z M 24.9121779859485 15.9547738693467  C 25 16.0664433277499  25.0195160031226 16.2013772566536  24.9707259953162 16.3595756560581  C 24.931693989071 16.499162479062  24.8341139734582 16.5922203610646  24.6779859484778 16.6387493020659  L 20.403981264637 17.9787828029034  L 20.403981264637 22.250139586823  C 20.403981264637 22.3990321980272  20.3405542544887 22.5200074446306  20.213700234192 22.6130653266332  C 20.0673302107728 22.7061232086358  19.9258391881343 22.7247347850363  19.7892271662763 22.6689000558347  L 15.5152224824356 21.356783919598  L 12.8805620608899 24.8185371300949  C 12.7829820452771 24.9395123766983  12.6561280249805 25  12.5 25  C 12.3438719750195 25  12.2170179547229 24.9395123766983  12.1194379391101 24.8185371300949  L 9.4847775175644 21.356783919598  L 5.21077283372365 22.6689000558347  C 5.07416081186573 22.7247347850363  4.93266978922717 22.7061232086358  4.78629976580796 22.6130653266332  C 4.65944574551132 22.5200074446306  4.596018735363 22.3990321980272  4.596018735363 22.250139586823  L 4.596018735363 17.9787828029034  L 0.322014051522248 16.6387493020659  C 0.165886026541764 16.5922203610646  0.0683060109289617 16.499162479062  0.0292740046838408 16.3595756560581  C -0.0195160031225604 16.2013772566536  0 16.0664433277499  0.0878220140515222 15.9547738693467  L 2.72248243559719 12.4930206588498  L 0.0878220140515222 9.03126744835287  C 0 8.91029220174949  -0.0195160031225604 8.77535827284571  0.0292740046838408 8.62646566164154  C 0.0683060109289617 8.48687883863763  0.165886026541764 8.39382095663503  0.322014051522248 8.34729201563372  L 4.596018735363 7.0072585147962  L 4.596018735363 2.73590173087661  C 4.596018735363 2.58700911967243  4.65944574551132 2.46603387306905  4.78629976580796 2.37297599106644  C 4.93266978922717 2.27991810906384  5.07416081186573 2.26130653266332  5.21077283372365 2.31714126186488  L 9.4847775175644 3.62925739810162  L 12.1194379391101 0.167504187604689  C 12.2072599531616 0.0558347292015621  12.3341139734582 0  12.5 0  C 12.6658860265418 0  12.7927400468384 0.0558347292015621  12.8805620608899 0.167504187604689  L 15.5152224824356 3.62925739810162  L 19.7892271662763 2.31714126186488  C 19.9258391881343 2.26130653266332  20.0673302107728 2.27991810906384  20.213700234192 2.37297599106644  C 20.3405542544887 2.46603387306905  20.403981264637 2.58700911967243  20.403981264637 2.73590173087661  L 20.403981264637 7.0072585147962  L 24.6779859484778 8.34729201563372  C 24.8341139734582 8.39382095663503  24.931693989071 8.48687883863763  24.9707259953162 8.62646566164154  C 25.0195160031226 8.77535827284571  25 8.91029220174949  24.9121779859485 9.03126744835287  L 22.2775175644028 12.4930206588498  L 24.9121779859485 15.9547738693467  Z " fill-rule="nonzero" fill="#efcc46" stroke="none" fill-opacity="0.796078431372549" transform="matrix(1 0 0 1 425 448 )" />
  </g>
</svg>