<?xml version="1.0" encoding="utf-8"?>
<svg version="1.1" xmlns:xlink="http://www.w3.org/1999/xlink" width="30px" height="20px" xmlns="http://www.w3.org/2000/svg">
  <g transform="matrix(1 0 0 1 -348 -452 )">
    <path d="M 28.6875 11.1434659090909  C 29.5625 12.1330492424242  30 13.2670454545455  30 14.5454545454545  C 30 16.0511363636364  29.4140625 17.3366477272727  28.2421875 18.4019886363636  C 27.0703125 19.4673295454545  25.65625 20  24 20  L 7 20  C 5.07291666666667 20  3.42447916666667 19.3773674242424  2.0546875 18.1321022727273  C 0.684895833333333 16.8868371212121  0 15.3882575757576  0 13.6363636363636  C 0 12.3863636363636  0.369791666666667 11.2428977272727  1.109375 10.2059659090909  C 1.84895833333333 9.16903409090909  2.82291666666667 8.39488636363637  4.03125 7.88352272727273  C 4.01041666666667 7.61837121212121  4 7.41477272727273  4 7.27272727272727  C 4 5.26515151515151  4.78125 3.55113636363636  6.34375 2.13068181818182  C 7.90625 0.710227272727273  9.79166666666667 0  12 0  C 13.6458333333333 0  15.1380208333333 0.416666666666665  16.4765625 1.25  C 17.8151041666667 2.08333333333333  18.7916666666667 3.17234848484848  19.40625 4.51704545454545  C 20.1354166666667 3.92992424242424  21 3.63636363636364  22 3.63636363636364  C 23.1041666666667 3.63636363636364  24.046875 3.99147727272727  24.828125 4.70170454545455  C 25.609375 5.41193181818182  26 6.26893939393939  26 7.27272727272727  C 26 7.98295454545455  25.7864583333333 8.63636363636363  25.359375 9.23295454545455  C 26.703125 9.51704545454545  27.8125 10.1538825757576  28.6875 11.1434659090909  Z " fill-rule="nonzero" fill="#22d2d2" stroke="none" transform="matrix(1 0 0 1 348 452 )" />
  </g>
</svg>